<svg class="marks" width="617" height="844" viewBox="0 0 617 844" version="1.1" xmlns="http://www.w3.org/2000/svg" xmlns:xlink="http://www.w3.org/1999/xlink"><rect width="617" height="844" style="fill: white;"></rect><g transform="translate(106,114)"><g class="mark-group role-frame root" role="graphics-object" aria-roledescription="group mark container"><g transform="translate(0,0)"><path class="background" aria-hidden="true" d="M0,0h0v0h0Z" style="fill: none;"></path><g><g class="mark-group role-scope concat_0_group" role="graphics-object" aria-roledescription="group mark container"><g transform="translate(0,0)"><path class="background" aria-hidden="true" d="M0.5,0.5h500v300h-500Z" style="fill: none; stroke: #ddd;"></path><g><g class="mark-group role-axis" role="graphics-symbol" aria-roledescription="axis" aria-label="X-axis for a linear scale with values from 0 to 50"><g transform="translate(0.5,300.5)"><path class="background" aria-hidden="true" d="M0,0h0v0h0Z" style="pointer-events: none; fill: none;"></path><g><g class="mark-rule role-axis-grid" style="pointer-events: none;"><line transform="translate(0,-300)" x2="0" y2="300" style="fill: none; stroke: #ddd; stroke-width: 1; opacity: 1;"></line><line transform="translate(50,-300)" x2="0" y2="300" style="fill: none; stroke: #ddd; stroke-width: 1; opacity: 1;"></line><line transform="translate(100,-300)" x2="0" y2="300" style="fill: none; stroke: #ddd; stroke-width: 1; opacity: 1;"></line><line transform="translate(150,-300)" x2="0" y2="300" style="fill: none; stroke: #ddd; stroke-width: 1; opacity: 1;"></line><line transform="translate(200,-300)" x2="0" y2="300" style="fill: none; stroke: #ddd; stroke-width: 1; opacity: 1;"></line><line transform="translate(250,-300)" x2="0" y2="300" style="fill: none; stroke: #ddd; stroke-width: 1; opacity: 1;"></line><line transform="translate(300,-300)" x2="0" y2="300" style="fill: none; stroke: #ddd; stroke-width: 1; opacity: 1;"></line><line transform="translate(350,-300)" x2="0" y2="300" style="fill: none; stroke: #ddd; stroke-width: 1; opacity: 1;"></line><line transform="translate(400,-300)" x2="0" y2="300" style="fill: none; stroke: #ddd; stroke-width: 1; opacity: 1;"></line><line transform="translate(450,-300)" x2="0" y2="300" style="fill: none; stroke: #ddd; stroke-width: 1; opacity: 1;"></line><line transform="translate(500,-300)" x2="0" y2="300" style="fill: none; stroke: #ddd; stroke-width: 1; opacity: 1;"></line></g></g><path class="foreground" aria-hidden="true" d="" style="pointer-events: none; display: none; fill: none;"></path></g></g><g class="mark-group role-axis" role="graphics-symbol" aria-roledescription="axis" aria-label="Y-axis for a linear scale with values from 0.0 to 0.4"><g transform="translate(0.5,0.5)"><path class="background" aria-hidden="true" d="M0,0h0v0h0Z" style="pointer-events: none; fill: none;"></path><g><g class="mark-rule role-axis-grid" style="pointer-events: none;"><line transform="translate(0,300)" x2="500" y2="0" style="fill: none; stroke: #ddd; stroke-width: 1; opacity: 1;"></line><line transform="translate(0,263)" x2="500" y2="0" style="fill: none; stroke: #ddd; stroke-width: 1; opacity: 1;"></line><line transform="translate(0,225)" x2="500" y2="0" style="fill: none; stroke: #ddd; stroke-width: 1; opacity: 1;"></line><line transform="translate(0,188)" x2="500" y2="0" style="fill: none; stroke: #ddd; stroke-width: 1; opacity: 1;"></line><line transform="translate(0,150)" x2="500" y2="0" style="fill: none; stroke: #ddd; stroke-width: 1; opacity: 1;"></line><line transform="translate(0,113)" x2="500" y2="0" style="fill: none; stroke: #ddd; stroke-width: 1; opacity: 1;"></line><line transform="translate(0,75)" x2="500" y2="0" style="fill: none; stroke: #ddd; stroke-width: 1; opacity: 1;"></line><line transform="translate(0,38)" x2="500" y2="0" style="fill: none; stroke: #ddd; stroke-width: 1; opacity: 1;"></line><line transform="translate(0,0)" x2="500" y2="0" style="fill: none; stroke: #ddd; stroke-width: 1; opacity: 1;"></line></g></g><path class="foreground" aria-hidden="true" d="" style="pointer-events: none; display: none; fill: none;"></path></g></g><g class="mark-group role-axis" role="graphics-symbol" aria-roledescription="axis" aria-label="X-axis titled 'epochs' for a linear scale with values from 0 to 50"><g transform="translate(0.5,300.5)"><path class="background" aria-hidden="true" d="M0,0h0v0h0Z" style="pointer-events: none; fill: none;"></path><g><g class="mark-rule role-axis-tick" style="pointer-events: none;"><line transform="translate(0,0)" x2="0" y2="5" style="fill: none; stroke: #888; stroke-width: 1; opacity: 1;"></line><line transform="translate(50,0)" x2="0" y2="5" style="fill: none; stroke: #888; stroke-width: 1; opacity: 1;"></line><line transform="translate(100,0)" x2="0" y2="5" style="fill: none; stroke: #888; stroke-width: 1; opacity: 1;"></line><line transform="translate(150,0)" x2="0" y2="5" style="fill: none; stroke: #888; stroke-width: 1; opacity: 1;"></line><line transform="translate(200,0)" x2="0" y2="5" style="fill: none; stroke: #888; stroke-width: 1; opacity: 1;"></line><line transform="translate(250,0)" x2="0" y2="5" style="fill: none; stroke: #888; stroke-width: 1; opacity: 1;"></line><line transform="translate(300,0)" x2="0" y2="5" style="fill: none; stroke: #888; stroke-width: 1; opacity: 1;"></line><line transform="translate(350,0)" x2="0" y2="5" style="fill: none; stroke: #888; stroke-width: 1; opacity: 1;"></line><line transform="translate(400,0)" x2="0" y2="5" style="fill: none; stroke: #888; stroke-width: 1; opacity: 1;"></line><line transform="translate(450,0)" x2="0" y2="5" style="fill: none; stroke: #888; stroke-width: 1; opacity: 1;"></line><line transform="translate(500,0)" x2="0" y2="5" style="fill: none; stroke: #888; stroke-width: 1; opacity: 1;"></line></g><g class="mark-text role-axis-label" style="pointer-events: none;"><text text-anchor="start" transform="translate(0,23)" style="font-family: sans-serif; font-size: 20px; fill: #000; opacity: 1;">0</text><text text-anchor="middle" transform="translate(50,23)" style="font-family: sans-serif; font-size: 20px; fill: #000; opacity: 1;">5</text><text text-anchor="middle" transform="translate(100,23)" style="font-family: sans-serif; font-size: 20px; fill: #000; opacity: 1;">10</text><text text-anchor="middle" transform="translate(150,23)" style="font-family: sans-serif; font-size: 20px; fill: #000; opacity: 1;">15</text><text text-anchor="middle" transform="translate(200,23)" style="font-family: sans-serif; font-size: 20px; fill: #000; opacity: 1;">20</text><text text-anchor="middle" transform="translate(250,23)" style="font-family: sans-serif; font-size: 20px; fill: #000; opacity: 1;">25</text><text text-anchor="middle" transform="translate(300,23)" style="font-family: sans-serif; font-size: 20px; fill: #000; opacity: 1;">30</text><text text-anchor="middle" transform="translate(350,23)" style="font-family: sans-serif; font-size: 20px; fill: #000; opacity: 1;">35</text><text text-anchor="middle" transform="translate(400,23)" style="font-family: sans-serif; font-size: 20px; fill: #000; opacity: 1;">40</text><text text-anchor="middle" transform="translate(450,23)" style="font-family: sans-serif; font-size: 20px; fill: #000; opacity: 1;">45</text><text text-anchor="end" transform="translate(500,23)" style="font-family: sans-serif; font-size: 20px; fill: #000; opacity: 1;">50</text></g><g class="mark-rule role-axis-domain" style="pointer-events: none;"><line transform="translate(0,0)" x2="500" y2="0" style="fill: none; stroke: #888; stroke-width: 1; opacity: 1;"></line></g><g class="mark-text role-axis-title" style="pointer-events: none;"><text text-anchor="middle" transform="translate(250,47)" style="font-family: sans-serif; font-size: 20px; font-weight: bold; fill: #000; opacity: 1;">epochs</text></g></g><path class="foreground" aria-hidden="true" d="" style="pointer-events: none; display: none; fill: none;"></path></g></g><g class="mark-group role-axis" role="graphics-symbol" aria-roledescription="axis" aria-label="Y-axis titled 'ssim' for a linear scale with values from 0.0 to 0.4"><g transform="translate(0.5,0.5)"><path class="background" aria-hidden="true" d="M0,0h0v0h0Z" style="pointer-events: none; fill: none;"></path><g><g class="mark-rule role-axis-tick" style="pointer-events: none;"><line transform="translate(0,300)" x2="-5" y2="0" style="fill: none; stroke: #888; stroke-width: 1; opacity: 1;"></line><line transform="translate(0,263)" x2="-5" y2="0" style="fill: none; stroke: #888; stroke-width: 1; opacity: 1;"></line><line transform="translate(0,225)" x2="-5" y2="0" style="fill: none; stroke: #888; stroke-width: 1; opacity: 1;"></line><line transform="translate(0,188)" x2="-5" y2="0" style="fill: none; stroke: #888; stroke-width: 1; opacity: 1;"></line><line transform="translate(0,150)" x2="-5" y2="0" style="fill: none; stroke: #888; stroke-width: 1; opacity: 1;"></line><line transform="translate(0,113)" x2="-5" y2="0" style="fill: none; stroke: #888; stroke-width: 1; opacity: 1;"></line><line transform="translate(0,75)" x2="-5" y2="0" style="fill: none; stroke: #888; stroke-width: 1; opacity: 1;"></line><line transform="translate(0,38)" x2="-5" y2="0" style="fill: none; stroke: #888; stroke-width: 1; opacity: 1;"></line><line transform="translate(0,0)" x2="-5" y2="0" style="fill: none; stroke: #888; stroke-width: 1; opacity: 1;"></line></g><g class="mark-text role-axis-label" style="pointer-events: none;"><text text-anchor="end" transform="translate(-7,306)" style="font-family: sans-serif; font-size: 20px; fill: #000; opacity: 1;">0.00</text><text text-anchor="end" transform="translate(-7,268.5)" style="font-family: sans-serif; font-size: 20px; fill: #000; opacity: 1;">0.05</text><text text-anchor="end" transform="translate(-7,231)" style="font-family: sans-serif; font-size: 20px; fill: #000; opacity: 1;">0.10</text><text text-anchor="end" transform="translate(-7,193.5)" style="font-family: sans-serif; font-size: 20px; fill: #000; opacity: 1;">0.15</text><text text-anchor="end" transform="translate(-7,156)" style="font-family: sans-serif; font-size: 20px; fill: #000; opacity: 1;">0.20</text><text text-anchor="end" transform="translate(-7,118.5)" style="font-family: sans-serif; font-size: 20px; fill: #000; opacity: 1;">0.25</text><text text-anchor="end" transform="translate(-7,81.00000000000003)" style="font-family: sans-serif; font-size: 20px; fill: #000; opacity: 1;">0.30</text><text text-anchor="end" transform="translate(-7,43.500000000000036)" style="font-family: sans-serif; font-size: 20px; fill: #000; opacity: 1;">0.35</text><text text-anchor="end" transform="translate(-7,6)" style="font-family: sans-serif; font-size: 20px; fill: #000; opacity: 1;">0.40</text></g><g class="mark-rule role-axis-domain" style="pointer-events: none;"><line transform="translate(0,300)" x2="0" y2="-300" style="fill: none; stroke: #888; stroke-width: 1; opacity: 1;"></line></g><g class="mark-text role-axis-title" style="pointer-events: none;"><text text-anchor="middle" transform="translate(-49.92578125,150) rotate(-90) translate(0,-4)" style="font-family: sans-serif; font-size: 20px; font-weight: bold; fill: #000; opacity: 1;">ssim</text></g></g><path class="foreground" aria-hidden="true" d="" style="pointer-events: none; display: none; fill: none;"></path></g></g><g class="mark-group role-scope concat_0_layer_0_pathgroup" role="graphics-object" aria-roledescription="group mark container"><g transform="translate(0,0)"><path class="background" aria-hidden="true" d="M0,0h500v300h-500Z" style="fill: none;"></path><g><g class="mark-line role-mark concat_0_layer_0_marks" role="graphics-symbol" aria-roledescription="line mark container"><path d="M0,299.9725247047548L10,71.9703649598652L20,78.43447920413288L30,63.195310999605866L40,55.48793677122299L50,47.33808419314942L60,47.567040412512775L70,40.21673456683037L80,39.08219028126515L90,40.41219727819134L100,39.90008082692482L110,38.59820188295302L120,35.3841494371245L130,30.25368485118355L140,28.59892119784191L150,29.124589185314818L160,28.1601729003096L170,29.51562729188052L180,25.135508544686324L190,24.265013083013432L200,25.641414038405706L210,29.439478330872827L220,24.992014793810036L230,28.579037226103278L240,26.58533536886971L250,24.334366179909473L260,23.366405886563857L270,24.999384176388673L280,22.12440095608509L290,22.306788079808925L300,34.339451564127835L310,22.559461428222406L320,23.414229245456298L330,22.325059494638122L340,22.3235902220831L350,22.24334484795363L360,22.898703353657513L370,21.70329688354361L380,21.98880327337808L390,26.139486358955487L400,21.78153734235212L410,21.118021911382733L420,20.045851819629657L430,19.87618087131401L440,20.443038733398254L450,19.761573978942536L460,19.808451857603437L470,19.798552613381926L480,19.636312730196913L490,19.646538829737302L500,19.88140017945289" style="fill: none; stroke: #4c78a8; stroke-width: 5;"></path></g></g><path class="foreground" aria-hidden="true" d="" style="display: none; fill: none;"></path></g></g><g class="mark-group role-scope concat_0_layer_1_pathgroup" role="graphics-object" aria-roledescription="group mark container"><g transform="translate(0,0)"><path class="background" aria-hidden="true" d="M0,0h500v300h-500Z" style="fill: none;"></path><g><g class="mark-line role-mark concat_0_layer_1_marks" role="graphics-symbol" aria-roledescription="line mark container"><path d="M0,299.9956416790785L10,83.02735768461605L20,64.31380038084053L30,63.659369304024835L40,70.02347212819828L50,67.94542922045939L60,50.74031348129966L70,55.9100942274288L80,56.02146797437722L90,66.5688339878908L100,55.457833747613485L110,49.976801085137026L120,53.235902095042064L130,43.38885522460837L140,48.323633467323354L150,47.126373897463736L160,38.05130907309013L170,36.65813510948834L180,38.98130916697643L190,40.2467516861025L200,39.62388898672449L210,33.912243511272386L220,34.215847566771565L230,33.89257977530904L240,32.44277255098316L250,36.46333084794158L260,34.519263720430814L270,40.80578854856651L280,31.37042289715494L290,30.73761741130687L300,33.401031132795765L310,32.4026673950937L320,30.089286600280218L330,33.82710913071435L340,30.9128528664519L350,30.415668696239496L360,30.4869753983566L370,36.16974052520167L380,29.908675318089973L390,30.385281010687336L400,33.17802044903796L410,28.61920540568986L420,27.54355072833342L430,27.032534312709245L440,27.459599929447688L450,26.77395736639463L460,26.683714749563713L470,26.598079591189062L480,26.381843721246668L490,26.287088099482293L500,26.59193223572859" style="fill: none; stroke: #f58518; stroke-width: 5;"></path></g></g><path class="foreground" aria-hidden="true" d="" style="display: none; fill: none;"></path></g></g><g class="mark-group role-scope concat_0_layer_2_pathgroup" role="graphics-object" aria-roledescription="group mark container"><g transform="translate(0,0)"><path class="background" aria-hidden="true" d="M0,0h500v300h-500Z" style="fill: none;"></path><g><g class="mark-line role-mark concat_0_layer_2_marks" role="graphics-symbol" aria-roledescription="line mark container"><path d="M0,299.999966539232L10,299.99901256502943L20,118.89968910293247L30,90.07292654741934L40,93.37251576095589L50,100.56042272705574L60,291.10347812529335L70,131.50114442681107L80,201.47003319905147L90,237.68372415085966L100,79.01983794883684L110,75.39670195548334L120,82.2721223531643L130,112.72771542090115L140,94.66417332886581L150,71.5241808063036L160,100.64954046526617L170,70.32712266438857L180,55.50889087541251L190,76.57225266435161L200,64.88782352043174L210,62.90957688638136L220,55.847576084201066L230,52.93765834617206L240,78.20884134711135L250,65.25576007415712L260,62.555420027210786L270,58.13549913223237L280,73.4029927827882L290,61.99567038420598L300,52.862312810733805L310,64.8536623728157L320,68.5395651235719L330,57.77121230763851L340,57.01004800917132L350,50.312473218518036L360,69.48378972226271L370,89.10937466739358L380,51.9961846367508L390,55.79130713516396L400,60.679686345806196L410,65.02214688394749L420,51.815435854405024L430,46.78370577612554L440,45.07988079857513L450,42.13191838090955L460,44.30680398561684L470,51.58590841842886L480,43.03473111871495" style="fill: none; stroke: #e45756; stroke-width: 5;"></path></g></g><path class="foreground" aria-hidden="true" d="" style="display: none; fill: none;"></path></g></g></g><path class="foreground" aria-hidden="true" d="" style="display: none; fill: none;"></path></g></g><g class="mark-group role-scope concat_1_group" role="graphics-object" aria-roledescription="group mark container"><g transform="translate(0,373)"><path class="background" aria-hidden="true" d="M0.5,0.5h500v300h-500Z" style="fill: none; stroke: #ddd;"></path><g><g class="mark-group role-axis" role="graphics-symbol" aria-roledescription="axis" aria-label="X-axis for a linear scale with values from 0 to 50"><g transform="translate(0.5,300.5)"><path class="background" aria-hidden="true" d="M0,0h0v0h0Z" style="pointer-events: none; fill: none;"></path><g><g class="mark-rule role-axis-grid" style="pointer-events: none;"><line transform="translate(0,-300)" x2="0" y2="300" style="fill: none; stroke: #ddd; stroke-width: 1; opacity: 1;"></line><line transform="translate(50,-300)" x2="0" y2="300" style="fill: none; stroke: #ddd; stroke-width: 1; opacity: 1;"></line><line transform="translate(100,-300)" x2="0" y2="300" style="fill: none; stroke: #ddd; stroke-width: 1; opacity: 1;"></line><line transform="translate(150,-300)" x2="0" y2="300" style="fill: none; stroke: #ddd; stroke-width: 1; opacity: 1;"></line><line transform="translate(200,-300)" x2="0" y2="300" style="fill: none; stroke: #ddd; stroke-width: 1; opacity: 1;"></line><line transform="translate(250,-300)" x2="0" y2="300" style="fill: none; stroke: #ddd; stroke-width: 1; opacity: 1;"></line><line transform="translate(300,-300)" x2="0" y2="300" style="fill: none; stroke: #ddd; stroke-width: 1; opacity: 1;"></line><line transform="translate(350,-300)" x2="0" y2="300" style="fill: none; stroke: #ddd; stroke-width: 1; opacity: 1;"></line><line transform="translate(400,-300)" x2="0" y2="300" style="fill: none; stroke: #ddd; stroke-width: 1; opacity: 1;"></line><line transform="translate(450,-300)" x2="0" y2="300" style="fill: none; stroke: #ddd; stroke-width: 1; opacity: 1;"></line><line transform="translate(500,-300)" x2="0" y2="300" style="fill: none; stroke: #ddd; stroke-width: 1; opacity: 1;"></line></g></g><path class="foreground" aria-hidden="true" d="" style="pointer-events: none; display: none; fill: none;"></path></g></g><g class="mark-group role-axis" role="graphics-symbol" aria-roledescription="axis" aria-label="Y-axis for a linear scale with values from -35 to 25"><g transform="translate(0.5,0.5)"><path class="background" aria-hidden="true" d="M0,0h0v0h0Z" style="pointer-events: none; fill: none;"></path><g><g class="mark-rule role-axis-grid" style="pointer-events: none;"><line transform="translate(0,275)" x2="500" y2="0" style="fill: none; stroke: #ddd; stroke-width: 1; opacity: 1;"></line><line transform="translate(0,225)" x2="500" y2="0" style="fill: none; stroke: #ddd; stroke-width: 1; opacity: 1;"></line><line transform="translate(0,175)" x2="500" y2="0" style="fill: none; stroke: #ddd; stroke-width: 1; opacity: 1;"></line><line transform="translate(0,125)" x2="500" y2="0" style="fill: none; stroke: #ddd; stroke-width: 1; opacity: 1;"></line><line transform="translate(0,75)" x2="500" y2="0" style="fill: none; stroke: #ddd; stroke-width: 1; opacity: 1;"></line><line transform="translate(0,25)" x2="500" y2="0" style="fill: none; stroke: #ddd; stroke-width: 1; opacity: 1;"></line></g></g><path class="foreground" aria-hidden="true" d="" style="pointer-events: none; display: none; fill: none;"></path></g></g><g class="mark-group role-axis" role="graphics-symbol" aria-roledescription="axis" aria-label="X-axis titled 'epochs' for a linear scale with values from 0 to 50"><g transform="translate(0.5,300.5)"><path class="background" aria-hidden="true" d="M0,0h0v0h0Z" style="pointer-events: none; fill: none;"></path><g><g class="mark-rule role-axis-tick" style="pointer-events: none;"><line transform="translate(0,0)" x2="0" y2="5" style="fill: none; stroke: #888; stroke-width: 1; opacity: 1;"></line><line transform="translate(50,0)" x2="0" y2="5" style="fill: none; stroke: #888; stroke-width: 1; opacity: 1;"></line><line transform="translate(100,0)" x2="0" y2="5" style="fill: none; stroke: #888; stroke-width: 1; opacity: 1;"></line><line transform="translate(150,0)" x2="0" y2="5" style="fill: none; stroke: #888; stroke-width: 1; opacity: 1;"></line><line transform="translate(200,0)" x2="0" y2="5" style="fill: none; stroke: #888; stroke-width: 1; opacity: 1;"></line><line transform="translate(250,0)" x2="0" y2="5" style="fill: none; stroke: #888; stroke-width: 1; opacity: 1;"></line><line transform="translate(300,0)" x2="0" y2="5" style="fill: none; stroke: #888; stroke-width: 1; opacity: 1;"></line><line transform="translate(350,0)" x2="0" y2="5" style="fill: none; stroke: #888; stroke-width: 1; opacity: 1;"></line><line transform="translate(400,0)" x2="0" y2="5" style="fill: none; stroke: #888; stroke-width: 1; opacity: 1;"></line><line transform="translate(450,0)" x2="0" y2="5" style="fill: none; stroke: #888; stroke-width: 1; opacity: 1;"></line><line transform="translate(500,0)" x2="0" y2="5" style="fill: none; stroke: #888; stroke-width: 1; opacity: 1;"></line></g><g class="mark-text role-axis-label" style="pointer-events: none;"><text text-anchor="start" transform="translate(0,23)" style="font-family: sans-serif; font-size: 20px; fill: #000; opacity: 1;">0</text><text text-anchor="middle" transform="translate(50,23)" style="font-family: sans-serif; font-size: 20px; fill: #000; opacity: 1;">5</text><text text-anchor="middle" transform="translate(100,23)" style="font-family: sans-serif; font-size: 20px; fill: #000; opacity: 1;">10</text><text text-anchor="middle" transform="translate(150,23)" style="font-family: sans-serif; font-size: 20px; fill: #000; opacity: 1;">15</text><text text-anchor="middle" transform="translate(200,23)" style="font-family: sans-serif; font-size: 20px; fill: #000; opacity: 1;">20</text><text text-anchor="middle" transform="translate(250,23)" style="font-family: sans-serif; font-size: 20px; fill: #000; opacity: 1;">25</text><text text-anchor="middle" transform="translate(300,23)" style="font-family: sans-serif; font-size: 20px; fill: #000; opacity: 1;">30</text><text text-anchor="middle" transform="translate(350,23)" style="font-family: sans-serif; font-size: 20px; fill: #000; opacity: 1;">35</text><text text-anchor="middle" transform="translate(400,23)" style="font-family: sans-serif; font-size: 20px; fill: #000; opacity: 1;">40</text><text text-anchor="middle" transform="translate(450,23)" style="font-family: sans-serif; font-size: 20px; fill: #000; opacity: 1;">45</text><text text-anchor="end" transform="translate(500,23)" style="font-family: sans-serif; font-size: 20px; fill: #000; opacity: 1;">50</text></g><g class="mark-rule role-axis-domain" style="pointer-events: none;"><line transform="translate(0,0)" x2="500" y2="0" style="fill: none; stroke: #888; stroke-width: 1; opacity: 1;"></line></g><g class="mark-text role-axis-title" style="pointer-events: none;"><text text-anchor="middle" transform="translate(250,47)" style="font-family: sans-serif; font-size: 20px; font-weight: bold; fill: #000; opacity: 1;">epochs</text></g></g><path class="foreground" aria-hidden="true" d="" style="pointer-events: none; display: none; fill: none;"></path></g></g><g class="mark-group role-axis" role="graphics-symbol" aria-roledescription="axis" aria-label="Y-axis titled 'psnr' for a linear scale with values from -35 to 25"><g transform="translate(0.5,0.5)"><path class="background" aria-hidden="true" d="M0,0h0v0h0Z" style="pointer-events: none; fill: none;"></path><g><g class="mark-rule role-axis-tick" style="pointer-events: none;"><line transform="translate(0,275)" x2="-5" y2="0" style="fill: none; stroke: #888; stroke-width: 1; opacity: 1;"></line><line transform="translate(0,225)" x2="-5" y2="0" style="fill: none; stroke: #888; stroke-width: 1; opacity: 1;"></line><line transform="translate(0,175)" x2="-5" y2="0" style="fill: none; stroke: #888; stroke-width: 1; opacity: 1;"></line><line transform="translate(0,125)" x2="-5" y2="0" style="fill: none; stroke: #888; stroke-width: 1; opacity: 1;"></line><line transform="translate(0,75)" x2="-5" y2="0" style="fill: none; stroke: #888; stroke-width: 1; opacity: 1;"></line><line transform="translate(0,25)" x2="-5" y2="0" style="fill: none; stroke: #888; stroke-width: 1; opacity: 1;"></line></g><g class="mark-text role-axis-label" style="pointer-events: none;"><text text-anchor="end" transform="translate(-7,281)" style="font-family: sans-serif; font-size: 20px; fill: #000; opacity: 1;">-30</text><text text-anchor="end" transform="translate(-7,231)" style="font-family: sans-serif; font-size: 20px; fill: #000; opacity: 1;">-20</text><text text-anchor="end" transform="translate(-7,180.99999999999997)" style="font-family: sans-serif; font-size: 20px; fill: #000; opacity: 1;">-10</text><text text-anchor="end" transform="translate(-7,131)" style="font-family: sans-serif; font-size: 20px; fill: #000; opacity: 1;">0</text><text text-anchor="end" transform="translate(-7,81)" style="font-family: sans-serif; font-size: 20px; fill: #000; opacity: 1;">10</text><text text-anchor="end" transform="translate(-7,31.00000000000001)" style="font-family: sans-serif; font-size: 20px; fill: #000; opacity: 1;">20</text></g><g class="mark-rule role-axis-domain" style="pointer-events: none;"><line transform="translate(0,300)" x2="0" y2="-300" style="fill: none; stroke: #888; stroke-width: 1; opacity: 1;"></line></g><g class="mark-text role-axis-title" style="pointer-events: none;"><text text-anchor="middle" transform="translate(-39.90625,150) rotate(-90) translate(0,-4)" style="font-family: sans-serif; font-size: 20px; font-weight: bold; fill: #000; opacity: 1;">psnr</text></g></g><path class="foreground" aria-hidden="true" d="" style="pointer-events: none; display: none; fill: none;"></path></g></g><g class="mark-group role-scope concat_1_layer_0_pathgroup" role="graphics-object" aria-roledescription="group mark container"><g transform="translate(0,0)"><path class="background" aria-hidden="true" d="M0,0h500v300h-500Z" style="fill: none;"></path><g><g class="mark-line role-mark concat_1_layer_0_marks" role="graphics-symbol" aria-roledescription="line mark container"><path d="M0,201.85138504517707L10,44.07833378618652L20,39.62456289111847L30,28.795167529196707L40,29.50776888828094L50,25.950266495132567L60,25.628546309780674L70,23.968044184095525L80,23.56602055208907L90,24.49796662529945L100,24.332651321096353L110,23.50791709259219L120,22.85041509572261L130,21.865637850528884L140,21.863862687320356L150,21.884160286124754L160,21.789119183779203L170,21.802943582449785L180,21.147152934152558L190,21.151410011669757L200,21.18518132910546L210,22.05756526107876L220,20.998786266096936L230,21.894344821115872L240,21.24721210889455L250,21.026209040354914L260,20.806147885100746L270,21.040084052445284L280,20.77465805023717L290,20.7617704899394L300,22.769866046698805L310,20.508499549386052L320,20.612997036860815L330,20.524816927654953L340,20.555678899643638L350,20.43546178683898L360,20.667642014899744L370,20.35708172209153L380,20.488697135659063L390,21.066892583952267L400,20.520237214764038L410,20.197993078503817L420,20.3279648038749L430,20.128246408596297L440,20.237647778144275L450,20.153877678906152L460,20.09615812667358L470,20.102302202846346L480,20.15613884329568L490,20.2100062288583L500,20.095667187190713" style="fill: none; stroke: #4c78a8; stroke-width: 5;"></path></g></g><path class="foreground" aria-hidden="true" d="" style="display: none; fill: none;"></path></g></g><g class="mark-group role-scope concat_1_layer_1_pathgroup" role="graphics-object" aria-roledescription="group mark container"><g transform="translate(0,0)"><path class="background" aria-hidden="true" d="M0,0h500v300h-500Z" style="fill: none;"></path><g><g class="mark-line role-mark concat_1_layer_1_marks" role="graphics-symbol" aria-roledescription="line mark container"><path d="M0,232.52214377564624L10,38.43286289660135L20,41.177879264533956L30,36.06131303764207L40,36.06886883944493L50,34.9977787630919L60,28.998662719993472L70,27.51188157110326L80,26.86520080495124L90,31.98546024828599L100,32.45324424382664L110,25.569782812295692L120,31.335477883396734L130,24.449882250106334L140,25.96112868073418L150,25.938776875279867L160,22.99299906457768L170,22.7768714065663L180,22.725648987748805L190,22.853461438513268L200,23.462015953909756L210,21.87918419755156L220,22.061308455600336L230,21.923129539618667L240,21.55107151058945L250,22.280928451759518L260,22.223726326021097L270,24.061654774759L280,21.66042704045821L290,21.407725670210876L300,22.084716535764116L310,21.55859717080302L320,21.111060869860797L330,21.824726736455034L340,21.37923909520174L350,21.224149847227082L360,21.305976102836578L370,22.416497734997552L380,21.191543549810632L390,21.240890193681793L400,21.711646404439456L410,20.839533158191525L420,20.93937795602323L430,20.711898181596954L440,20.78379150414825L450,20.684425786845196L460,20.629746017336657L470,20.623533389314296L480,20.671459887884602L490,20.69748360338317L500,20.617764481306434" style="fill: none; stroke: #f58518; stroke-width: 5;"></path></g></g><path class="foreground" aria-hidden="true" d="" style="display: none; fill: none;"></path></g></g><g class="mark-group role-scope concat_1_layer_2_pathgroup" role="graphics-object" aria-roledescription="group mark container"><g transform="translate(0,0)"><path class="background" aria-hidden="true" d="M0,0h500v300h-500Z" style="fill: none;"></path><g><g class="mark-line role-mark concat_1_layer_2_marks" role="graphics-symbol" aria-roledescription="line mark container"><path d="M0,288.54594020999923L10,255.3765087076334L20,54.25401956057914L30,51.07807772976572L40,39.06477562016062L50,50.300300910355325L60,151.81241259054707L70,68.96725126462931L80,66.82974174017147L90,98.54883334418871L100,39.721879599117074L110,33.61206992625599L120,39.056367879208764L130,51.50356733485817L140,42.7844100328363L150,42.16054043889203L160,49.19372596324302L170,36.77124838582117L180,30.446043823007642L190,36.22175410040443L200,31.241466489272305L210,29.9917430422895L220,27.63219921998541L230,27.821725728775913L240,35.17057413791623L250,32.45531829169289L260,30.29749618292492L270,28.835645189669513L280,34.85548696436063L290,28.298345679237467L300,27.441049963488396L310,31.870855561222754L320,32.29602652054724L330,29.268971507689724L340,28.66811026969144L350,27.311564939608058L360,31.077235954055084L370,40.96326017952643L380,27.324481389984424L390,28.773364026647375L400,30.27594224590986L410,34.35730946696245L420,29.701604149246563L430,26.00416877744165L440,25.035437950124873L450,24.343590168345898L460,24.88463117970162L470,30.461589862086157L480,24.6740638330745" style="fill: none; stroke: #e45756; stroke-width: 5;"></path></g></g><path class="foreground" aria-hidden="true" d="" style="display: none; fill: none;"></path></g></g></g><path class="foreground" aria-hidden="true" d="" style="display: none; fill: none;"></path></g></g><g class="mark-group role-legend" role="graphics-symbol" aria-roledescription="legend" aria-label="Symbol legend titled 'Block' for stroke color with 3 values: BLOCK_4, BLOCK_6, BLOCK_8"><g transform="translate(-100,-91)"><path class="background" aria-hidden="true" d="M10.5,0.5L72.5,0.5C78.01915024494,0.5,82.5,4.98084975506,82.5,10.5L82.5,63.5C82.5,69.01915024494,78.01915024494,73.5,72.5,73.5L10.5,73.5C4.98084975506,73.5,0.5,69.01915024494,0.5,63.5L0.5,10.5C0.5,4.98084975506,4.98084975506,0.5,10.5,0.5Z" style="pointer-events: none; fill: #EEEEEE; stroke: gray;"></path><g><g class="mark-group role-legend-entry"><g transform="translate(10,26)"><path class="background" aria-hidden="true" d="M0,0h0v0h0Z" style="pointer-events: none; fill: none;"></path><g><g class="mark-group role-scope" role="graphics-object" aria-roledescription="group mark container"><g transform="translate(0,0)"><path class="background" aria-hidden="true" d="M0,0h61.0244140625v11h-61.0244140625Z" style="pointer-events: none; fill: none; opacity: 1;"></path><g><g class="mark-symbol role-legend-symbol" style="pointer-events: none;"><path transform="translate(6,6)" d="M-5,0L5,0" style="fill: none; stroke: #4c78a8; stroke-width: 1.5; opacity: 1;"></path></g><g class="mark-text role-legend-label" style="pointer-events: none;"><text text-anchor="start" transform="translate(16,9)" style="font-family: sans-serif; font-size: 10px; fill: #000; opacity: 1;">BLOCK_4</text></g></g><path class="foreground" aria-hidden="true" d="" style="pointer-events: none; display: none; fill: none;"></path></g><g transform="translate(0,13)"><path class="background" aria-hidden="true" d="M0,0h61.0244140625v11h-61.0244140625Z" style="pointer-events: none; fill: none; opacity: 1;"></path><g><g class="mark-symbol role-legend-symbol" style="pointer-events: none;"><path transform="translate(6,6)" d="M-5,0L5,0" style="fill: none; stroke: #f58518; stroke-width: 1.5; opacity: 1;"></path></g><g class="mark-text role-legend-label" style="pointer-events: none;"><text text-anchor="start" transform="translate(16,9)" style="font-family: sans-serif; font-size: 10px; fill: #000; opacity: 1;">BLOCK_6</text></g></g><path class="foreground" aria-hidden="true" d="" style="pointer-events: none; display: none; fill: none;"></path></g><g transform="translate(0,26)"><path class="background" aria-hidden="true" d="M0,0h61.0244140625v11h-61.0244140625Z" style="pointer-events: none; fill: none; opacity: 1;"></path><g><g class="mark-symbol role-legend-symbol" style="pointer-events: none;"><path transform="translate(6,6)" d="M-5,0L5,0" style="fill: none; stroke: #e45756; stroke-width: 1.5; opacity: 1;"></path></g><g class="mark-text role-legend-label" style="pointer-events: none;"><text text-anchor="start" transform="translate(16,9)" style="font-family: sans-serif; font-size: 10px; fill: #000; opacity: 1;">BLOCK_8</text></g></g><path class="foreground" aria-hidden="true" d="" style="pointer-events: none; display: none; fill: none;"></path></g></g></g><path class="foreground" aria-hidden="true" d="" style="pointer-events: none; display: none; fill: none;"></path></g></g><g class="mark-text role-legend-title" style="pointer-events: none;"><text text-anchor="start" transform="translate(10,19)" style="font-family: sans-serif; font-size: 11px; font-weight: bold; fill: #000; opacity: 1;">Block</text></g></g><path class="foreground" aria-hidden="true" d="" style="pointer-events: none; display: none; fill: none;"></path></g></g><g class="mark-group role-title"><g transform="translate(-101,-109)"><path class="background" aria-hidden="true" d="M0,0h0v0h0Z" style="pointer-events: none; fill: none;"></path><g><g class="mark-text role-title-text" role="graphics-symbol" aria-roledescription="title" aria-label="Title text 'Results with different number of blocks'" style="pointer-events: none;"><text text-anchor="start" transform="translate(0,10)" style="font-family: sans-serif; font-size: 13px; font-weight: bold; fill: #000; opacity: 1;">Results with different number of blocks</text></g></g><path class="foreground" aria-hidden="true" d="" style="pointer-events: none; display: none; fill: none;"></path></g></g></g><path class="foreground" aria-hidden="true" d="" style="display: none; fill: none;"></path></g></g></g></svg>